<svg xmlns="http://www.w3.org/2000/svg" viewBox="0 0 80 200" width="80" height="200">
  <!-- Space Needle fridge magnet cutout -->
  <!-- Observation deck top spike -->
  <polygon points="40,0 38,12 42,12" fill="#4a5568"/>
  <!-- Observation deck roof -->
  <polygon points="20,20 40,12 60,20" fill="#718096"/>
  <!-- Observation deck body -->
  <rect x="18" y="20" width="44" height="10" rx="1" fill="#a0aec0"/>
  <!-- Observation deck windows -->
  <rect x="20" y="22" width="40" height="6" rx="1" fill="#63b3ed" opacity="0.7"/>
  <!-- Observation deck underside -->
  <polygon points="14,30 18,30 20,35 60,35 62,30 66,30 58,38 22,38" fill="#718096"/>
  <!-- Upper shaft -->
  <rect x="37" y="38" width="6" height="30" fill="#a0aec0"/>
  <!-- Middle flare -->
  <polygon points="32,68 37,68 37,72 43,72 43,68 48,68 46,75 34,75" fill="#718096"/>
  <!-- Lower shaft -->
  <rect x="38" y="75" width="4" height="100" fill="#a0aec0"/>
  <!-- Base legs -->
  <polygon points="38,170 25,195 30,196 39,175" fill="#718096"/>
  <polygon points="42,170 55,195 50,196 41,175" fill="#718096"/>
  <polygon points="39,175 40,195 41,175" fill="#a0aec0"/>
  <!-- Base platform -->
  <rect x="22" y="195" width="36" height="5" rx="2" fill="#4a5568"/>
</svg>
